<svg width="50" height="50" viewBox="0 0 50 50" xmlns="http://www.w3.org/2000/svg">
    <g id="eye">
        <path d="M18.225 9.58334C17.6917 8.65834 14.7583 4.01667 9.77501 4.16667C5.16667 4.28334 2.50001 8.33334 1.77501 9.58334C1.70187 9.71002 1.66336 9.85372 1.66336 10C1.66336 10.1463 1.70187 10.29 1.77501 10.4167C2.30001 11.325 5.10834 15.8333 10.0167 15.8333H10.225C14.8333 15.7167 17.5083 11.6667 18.225 10.4167C18.2981 10.29 18.3367 10.1463 18.3367 10C18.3367 9.85372 18.2981 9.71002 18.225 9.58334ZM10.1833 14.1667C6.59167 14.25 4.25001 11.175 3.51667 10C4.35001 8.65834 6.52501 5.91667 9.85834 5.83334C13.4333 5.74167 15.7833 8.82501 16.525 10C15.6667 11.3417 13.5167 14.0833 10.1833 14.1667Z" fill="white"/>
        <path d="M10 7.08334C9.42315 7.08334 8.85924 7.2544 8.3796 7.57489C7.89995 7.89538 7.52612 8.3509 7.30536 8.88385C7.08461 9.4168 7.02685 10.0032 7.13939 10.569C7.25193 11.1348 7.52971 11.6545 7.93762 12.0624C8.34552 12.4703 8.86522 12.7481 9.431 12.8606C9.99678 12.9732 10.5832 12.9154 11.1162 12.6947C11.6491 12.4739 12.1046 12.1001 12.4251 11.6204C12.7456 11.1408 12.9167 10.5769 12.9167 10C12.9167 9.22646 12.6094 8.4846 12.0624 7.93762C11.5154 7.39063 10.7736 7.08334 10 7.08334ZM10 11.25C9.75279 11.25 9.51111 11.1767 9.30555 11.0393C9.09999 10.902 8.93977 10.7068 8.84516 10.4784C8.75055 10.25 8.7258 9.99862 8.77403 9.75615C8.82226 9.51367 8.94131 9.29094 9.11613 9.11613C9.29094 8.94131 9.51367 8.82226 9.75615 8.77403C9.99862 8.7258 10.25 8.75055 10.4784 8.84516C10.7068 8.93977 10.902 9.09999 11.0393 9.30555C11.1767 9.51111 11.25 9.75278 11.25 10C11.25 10.3315 11.1183 10.6495 10.8839 10.8839C10.6495 11.1183 10.3315 11.25 10 11.25Z" fill="white"/>
    </g>
    <g id="search">
        <svg width="20" height="20" viewBox="0 0 20 20" fill="none" xmlns="http://www.w3.org/2000/svg">
            <path d="M17.2583 16.075L14.425 13.25C15.3392 12.0854 15.8352 10.6472 15.8333 9.16667C15.8333 7.84813 15.4423 6.5592 14.7098 5.46287C13.9773 4.36654 12.9361 3.51206 11.7179 3.00747C10.4997 2.50289 9.15927 2.37087 7.86607 2.6281C6.57286 2.88534 5.38497 3.52027 4.45262 4.45262C3.52027 5.38497 2.88534 6.57286 2.6281 7.86607C2.37087 9.15927 2.50289 10.4997 3.00747 11.7179C3.51206 12.9361 4.36654 13.9773 5.46287 14.7098C6.5592 15.4423 7.84813 15.8333 9.16667 15.8333C10.6472 15.8352 12.0854 15.3392 13.25 14.425L16.075 17.2583C16.1525 17.3364 16.2446 17.3984 16.3462 17.4407C16.4477 17.4831 16.5567 17.5048 16.6667 17.5048C16.7767 17.5048 16.8856 17.4831 16.9871 17.4407C17.0887 17.3984 17.1809 17.3364 17.2583 17.2583C17.3364 17.1809 17.3984 17.0887 17.4407 16.9871C17.4831 16.8856 17.5048 16.7767 17.5048 16.6667C17.5048 16.5567 17.4831 16.4477 17.4407 16.3462C17.3984 16.2446 17.3364 16.1525 17.2583 16.075ZM4.16667 9.16667C4.16667 8.17776 4.45991 7.21106 5.00932 6.38882C5.55873 5.56657 6.33962 4.92571 7.25325 4.54727C8.16688 4.16883 9.17222 4.06982 10.1421 4.26274C11.112 4.45567 12.0029 4.93187 12.7022 5.63114C13.4015 6.3304 13.8777 7.22131 14.0706 8.19122C14.2635 9.16112 14.1645 10.1665 13.7861 11.0801C13.4076 11.9937 12.7668 12.7746 11.9445 13.324C11.1223 13.8734 10.1556 14.1667 9.16667 14.1667C7.84059 14.1667 6.56882 13.6399 5.63114 12.7022C4.69345 11.7645 4.16667 10.4928 4.16667 9.16667Z" fill="#808080"/>
        </svg>
    </g>
</svg>